<svg xmlns="http://www.w3.org/2000/svg" xmlns:xlink="http://www.w3.org/1999/xlink" width="1280" zoomAndPan="magnify" viewBox="0 0 960 599.999999" height="800" preserveAspectRatio="xMidYMid meet" version="1.0"><defs><filter x="0%" y="0%" width="100%" height="100%" id="f5c270c444"><feColorMatrix values="0 0 0 0 1 0 0 0 0 1 0 0 0 0 1 0 0 0 1 0" color-interpolation-filters="sRGB"/></filter><g/><mask id="9fa71cb609"><g filter="url(#f5c270c444)"><rect x="-96" width="1152" fill="#000000" y="-60" height="719.999999" fill-opacity="0.62"/></g></mask><clipPath id="ad29196b52"><path d="M 116 95 L 175.71875 95 L 175.71875 186 L 116 186 Z M 116 95 " clip-rule="nonzero"/></clipPath><clipPath id="a6d58f9169"><path d="M 0.0390625 23 L 148 23 L 148 186.171875 L 0.0390625 186.171875 Z M 0.0390625 23 " clip-rule="nonzero"/></clipPath><clipPath id="80e3b552df"><rect x="0" width="176" y="0" height="187"/></clipPath><mask id="825658977a"><g filter="url(#f5c270c444)"><rect x="-96" width="1152" fill="#000000" y="-60" height="719.999999" fill-opacity="0.38"/></g></mask><clipPath id="c3f0662be0"><path d="M 1 0 L 155.355469 0 L 155.355469 240 L 1 240 Z M 1 0 " clip-rule="nonzero"/></clipPath><clipPath id="c02a59017e"><rect x="0" width="157" y="0" height="240"/></clipPath><clipPath id="daebfaf921"><path d="M 0.785156 0.640625 L 202.363281 0.640625 L 202.363281 56.121094 L 0.785156 56.121094 Z M 0.785156 0.640625 " clip-rule="nonzero"/></clipPath><clipPath id="ccc151c00d"><path d="M 0.785156 0.640625 L 202.363281 0.640625 L 202.363281 56.121094 L 0.785156 56.121094 Z M 0.785156 0.640625 " clip-rule="nonzero"/></clipPath><clipPath id="282b2f52af"><path d="M 0.785156 0.640625 L 197.738281 0.640625 L 197.738281 56.121094 L 0.785156 56.121094 Z M 0.785156 0.640625 " clip-rule="nonzero"/></clipPath><linearGradient x1="82.703003" gradientTransform="matrix(0.92291, 0, 0, 0.924603, 22.934387, 22.832561)" y1="-24.002111" x2="82.703003" gradientUnits="userSpaceOnUse" y2="36.002213" id="b0c15a0cf9"><stop stop-opacity="1" stop-color="rgb(53.329468%, 53.329468%, 53.329468%)" offset="0"/><stop stop-opacity="1" stop-color="rgb(53.329468%, 53.329468%, 53.329468%)" offset="0.25"/><stop stop-opacity="1" stop-color="rgb(53.329468%, 53.329468%, 53.329468%)" offset="0.3125"/><stop stop-opacity="1" stop-color="rgb(53.329468%, 53.329468%, 53.329468%)" offset="0.34375"/><stop stop-opacity="1" stop-color="rgb(53.182983%, 53.182983%, 53.182983%)" offset="0.351563"/><stop stop-opacity="1" stop-color="rgb(52.301025%, 52.301025%, 52.301025%)" offset="0.355469"/><stop stop-opacity="1" stop-color="rgb(51.567078%, 51.567078%, 51.567078%)" offset="0.359375"/><stop stop-opacity="1" stop-color="rgb(50.831604%, 50.831604%, 50.831604%)" offset="0.363281"/><stop stop-opacity="1" stop-color="rgb(50.09613%, 50.09613%, 50.09613%)" offset="0.367188"/><stop stop-opacity="1" stop-color="rgb(49.360657%, 49.360657%, 49.360657%)" offset="0.371094"/><stop stop-opacity="1" stop-color="rgb(48.625183%, 48.625183%, 48.625183%)" offset="0.375"/><stop stop-opacity="1" stop-color="rgb(47.889709%, 47.889709%, 47.889709%)" offset="0.378906"/><stop stop-opacity="1" stop-color="rgb(47.154236%, 47.154236%, 47.154236%)" offset="0.382812"/><stop stop-opacity="1" stop-color="rgb(46.418762%, 46.418762%, 46.418762%)" offset="0.386719"/><stop stop-opacity="1" stop-color="rgb(45.683289%, 45.683289%, 45.683289%)" offset="0.390625"/><stop stop-opacity="1" stop-color="rgb(44.947815%, 44.947815%, 44.947815%)" offset="0.394531"/><stop stop-opacity="1" stop-color="rgb(44.213867%, 44.213867%, 44.213867%)" offset="0.398438"/><stop stop-opacity="1" stop-color="rgb(43.478394%, 43.478394%, 43.478394%)" offset="0.402344"/><stop stop-opacity="1" stop-color="rgb(42.74292%, 42.74292%, 42.74292%)" offset="0.40625"/><stop stop-opacity="1" stop-color="rgb(42.007446%, 42.007446%, 42.007446%)" offset="0.410156"/><stop stop-opacity="1" stop-color="rgb(41.271973%, 41.271973%, 41.271973%)" offset="0.414063"/><stop stop-opacity="1" stop-color="rgb(40.536499%, 40.536499%, 40.536499%)" offset="0.417969"/><stop stop-opacity="1" stop-color="rgb(39.801025%, 39.801025%, 39.801025%)" offset="0.421875"/><stop stop-opacity="1" stop-color="rgb(39.065552%, 39.065552%, 39.065552%)" offset="0.425781"/><stop stop-opacity="1" stop-color="rgb(38.331604%, 38.331604%, 38.331604%)" offset="0.429688"/><stop stop-opacity="1" stop-color="rgb(37.59613%, 37.59613%, 37.59613%)" offset="0.433594"/><stop stop-opacity="1" stop-color="rgb(36.860657%, 36.860657%, 36.860657%)" offset="0.4375"/><stop stop-opacity="1" stop-color="rgb(36.125183%, 36.125183%, 36.125183%)" offset="0.441406"/><stop stop-opacity="1" stop-color="rgb(35.389709%, 35.389709%, 35.389709%)" offset="0.445312"/><stop stop-opacity="1" stop-color="rgb(34.654236%, 34.654236%, 34.654236%)" offset="0.449219"/><stop stop-opacity="1" stop-color="rgb(33.918762%, 33.918762%, 33.918762%)" offset="0.453125"/><stop stop-opacity="1" stop-color="rgb(33.183289%, 33.183289%, 33.183289%)" offset="0.457031"/><stop stop-opacity="1" stop-color="rgb(32.447815%, 32.447815%, 32.447815%)" offset="0.460938"/><stop stop-opacity="1" stop-color="rgb(31.712341%, 31.712341%, 31.712341%)" offset="0.464844"/><stop stop-opacity="1" stop-color="rgb(30.978394%, 30.978394%, 30.978394%)" offset="0.46875"/><stop stop-opacity="1" stop-color="rgb(30.24292%, 30.24292%, 30.24292%)" offset="0.472656"/><stop stop-opacity="1" stop-color="rgb(29.507446%, 29.507446%, 29.507446%)" offset="0.476562"/><stop stop-opacity="1" stop-color="rgb(28.771973%, 28.771973%, 28.771973%)" offset="0.480469"/><stop stop-opacity="1" stop-color="rgb(28.036499%, 28.036499%, 28.036499%)" offset="0.484375"/><stop stop-opacity="1" stop-color="rgb(27.301025%, 27.301025%, 27.301025%)" offset="0.488281"/><stop stop-opacity="1" stop-color="rgb(26.565552%, 26.565552%, 26.565552%)" offset="0.492188"/><stop stop-opacity="1" stop-color="rgb(25.830078%, 25.830078%, 25.830078%)" offset="0.496094"/><stop stop-opacity="1" stop-color="rgb(25.09613%, 25.09613%, 25.09613%)" offset="0.5"/><stop stop-opacity="1" stop-color="rgb(24.360657%, 24.360657%, 24.360657%)" offset="0.503906"/><stop stop-opacity="1" stop-color="rgb(23.625183%, 23.625183%, 23.625183%)" offset="0.507812"/><stop stop-opacity="1" stop-color="rgb(22.889709%, 22.889709%, 22.889709%)" offset="0.511719"/><stop stop-opacity="1" stop-color="rgb(22.154236%, 22.154236%, 22.154236%)" offset="0.515625"/><stop stop-opacity="1" stop-color="rgb(21.418762%, 21.418762%, 21.418762%)" offset="0.519531"/><stop stop-opacity="1" stop-color="rgb(20.683289%, 20.683289%, 20.683289%)" offset="0.523438"/><stop stop-opacity="1" stop-color="rgb(19.947815%, 19.947815%, 19.947815%)" offset="0.527344"/><stop stop-opacity="1" stop-color="rgb(19.213867%, 19.213867%, 19.213867%)" offset="0.53125"/><stop stop-opacity="1" stop-color="rgb(18.478394%, 18.478394%, 18.478394%)" offset="0.535156"/><stop stop-opacity="1" stop-color="rgb(17.74292%, 17.74292%, 17.74292%)" offset="0.539063"/><stop stop-opacity="1" stop-color="rgb(17.007446%, 17.007446%, 17.007446%)" offset="0.542969"/><stop stop-opacity="1" stop-color="rgb(16.271973%, 16.271973%, 16.271973%)" offset="0.546875"/><stop stop-opacity="1" stop-color="rgb(15.536499%, 15.536499%, 15.536499%)" offset="0.550781"/><stop stop-opacity="1" stop-color="rgb(14.801025%, 14.801025%, 14.801025%)" offset="0.554688"/><stop stop-opacity="1" stop-color="rgb(14.065552%, 14.065552%, 14.065552%)" offset="0.558594"/><stop stop-opacity="1" stop-color="rgb(13.330078%, 13.330078%, 13.330078%)" offset="0.5625"/><stop stop-opacity="1" stop-color="rgb(12.594604%, 12.594604%, 12.594604%)" offset="0.566406"/><stop stop-opacity="1" stop-color="rgb(11.860657%, 11.860657%, 11.860657%)" offset="0.570313"/><stop stop-opacity="1" stop-color="rgb(11.125183%, 11.125183%, 11.125183%)" offset="0.574219"/><stop stop-opacity="1" stop-color="rgb(10.389709%, 10.389709%, 10.389709%)" offset="0.578125"/><stop stop-opacity="1" stop-color="rgb(9.654236%, 9.654236%, 9.654236%)" offset="0.582031"/><stop stop-opacity="1" stop-color="rgb(8.918762%, 8.918762%, 8.918762%)" offset="0.585938"/><stop stop-opacity="1" stop-color="rgb(8.183289%, 8.183289%, 8.183289%)" offset="0.589844"/><stop stop-opacity="1" stop-color="rgb(7.447815%, 7.447815%, 7.447815%)" offset="0.59375"/><stop stop-opacity="1" stop-color="rgb(6.712341%, 6.712341%, 6.712341%)" offset="0.597656"/><stop stop-opacity="1" stop-color="rgb(5.978394%, 5.978394%, 5.978394%)" offset="0.601563"/><stop stop-opacity="1" stop-color="rgb(5.24292%, 5.24292%, 5.24292%)" offset="0.605469"/><stop stop-opacity="1" stop-color="rgb(4.507446%, 4.507446%, 4.507446%)" offset="0.609375"/><stop stop-opacity="1" stop-color="rgb(3.771973%, 3.771973%, 3.771973%)" offset="0.613281"/><stop stop-opacity="1" stop-color="rgb(3.036499%, 3.036499%, 3.036499%)" offset="0.617188"/><stop stop-opacity="1" stop-color="rgb(2.301025%, 2.301025%, 2.301025%)" offset="0.621094"/><stop stop-opacity="1" stop-color="rgb(1.565552%, 1.565552%, 1.565552%)" offset="0.625"/><stop stop-opacity="1" stop-color="rgb(0.830078%, 0.830078%, 0.830078%)" offset="0.628906"/><stop stop-opacity="1" stop-color="rgb(0.0946045%, 0.0946045%, 0.0946045%)" offset="0.632812"/><stop stop-opacity="1" stop-color="rgb(0.0473022%, 0.0473022%, 0.0473022%)" offset="0.640625"/><stop stop-opacity="1" stop-color="rgb(0%, 0%, 0%)" offset="0.65625"/><stop stop-opacity="1" stop-color="rgb(0%, 0%, 0%)" offset="0.6875"/><stop stop-opacity="1" stop-color="rgb(0%, 0%, 0%)" offset="0.75"/><stop stop-opacity="1" stop-color="rgb(0%, 0%, 0%)" offset="1"/></linearGradient><clipPath id="e2ffa37e35"><rect x="0" width="203" y="0" height="57"/></clipPath><clipPath id="8a6662afe9"><path d="M 0.785156 0.640625 L 202.363281 0.640625 L 202.363281 56.121094 L 0.785156 56.121094 Z M 0.785156 0.640625 " clip-rule="nonzero"/></clipPath><clipPath id="d838c98daf"><rect x="0" width="203" y="0" height="57"/></clipPath><clipPath id="1777213fa5"><rect x="0" width="203" y="0" height="57"/></clipPath><mask id="91e2b064e8"><g filter="url(#f5c270c444)"><g transform="matrix(1, 0, 0, 1, 0, -0.000000000000056843)"><g clip-path="url(#1777213fa5)"><g clip-path="url(#8a6662afe9)"><g transform="matrix(1, 0, 0, 1, 0, -0.000000000000056843)"><g clip-path="url(#d838c98daf)"><g fill="#000000" fill-opacity="1"><g transform="translate(22.976603, 32.078905)"><g><path d="M 1 -7.921875 L 3.46875 -7.921875 C 4.519531 -7.921875 5.316406 -7.769531 5.859375 -7.46875 C 6.398438 -7.175781 6.671875 -6.660156 6.671875 -5.921875 C 6.671875 -5.617188 6.617188 -5.34375 6.515625 -5.09375 C 6.421875 -4.851562 6.285156 -4.65625 6.109375 -4.5 C 5.929688 -4.351562 5.710938 -4.253906 5.453125 -4.203125 L 5.453125 -4.15625 C 5.710938 -4.09375 5.945312 -3.992188 6.15625 -3.859375 C 6.375 -3.734375 6.546875 -3.546875 6.671875 -3.296875 C 6.804688 -3.046875 6.875 -2.710938 6.875 -2.296875 C 6.875 -1.816406 6.753906 -1.40625 6.515625 -1.0625 C 6.285156 -0.71875 5.953125 -0.453125 5.515625 -0.265625 C 5.078125 -0.0859375 4.554688 0 3.953125 0 L 1 0 Z M 2.671875 -4.78125 L 3.65625 -4.78125 C 4.132812 -4.78125 4.46875 -4.859375 4.65625 -5.015625 C 4.851562 -5.171875 4.953125 -5.394531 4.953125 -5.6875 C 4.953125 -5.988281 4.835938 -6.207031 4.609375 -6.34375 C 4.390625 -6.476562 4.039062 -6.546875 3.5625 -6.546875 L 2.671875 -6.546875 Z M 2.671875 -3.453125 L 2.671875 -1.390625 L 3.765625 -1.390625 C 4.273438 -1.390625 4.628906 -1.484375 4.828125 -1.671875 C 5.023438 -1.867188 5.125 -2.132812 5.125 -2.46875 C 5.125 -2.65625 5.078125 -2.820312 4.984375 -2.96875 C 4.898438 -3.125 4.753906 -3.242188 4.546875 -3.328125 C 4.347656 -3.410156 4.070312 -3.453125 3.71875 -3.453125 Z M 2.671875 -3.453125 "/></g></g></g><g fill="#000000" fill-opacity="1"><g transform="translate(29.865855, 32.078905)"><g><path d="M 3.46875 -4.65625 L 5.109375 -7.921875 L 6.921875 -7.921875 L 4.296875 -3.078125 L 4.296875 0 L 2.625 0 L 2.625 -3.03125 L 0 -7.921875 L 1.8125 -7.921875 Z M 3.46875 -4.65625 "/></g></g></g><g fill="#000000" fill-opacity="1"><g transform="translate(36.224143, 32.078905)"><g/></g></g><g fill="#000000" fill-opacity="1"><g transform="translate(38.540614, 32.078905)"><g><path d="M 7.5625 -4.03125 C 7.5625 -3.144531 7.390625 -2.398438 7.046875 -1.796875 C 6.710938 -1.203125 6.222656 -0.753906 5.578125 -0.453125 C 4.929688 -0.148438 4.148438 0 3.234375 0 L 1 0 L 1 -7.921875 L 3.484375 -7.921875 C 4.316406 -7.921875 5.035156 -7.769531 5.640625 -7.46875 C 6.253906 -7.175781 6.726562 -6.742188 7.0625 -6.171875 C 7.394531 -5.597656 7.5625 -4.882812 7.5625 -4.03125 Z M 5.828125 -4 C 5.828125 -4.582031 5.738281 -5.0625 5.5625 -5.4375 C 5.394531 -5.8125 5.144531 -6.085938 4.8125 -6.265625 C 4.476562 -6.453125 4.0625 -6.546875 3.5625 -6.546875 L 2.671875 -6.546875 L 2.671875 -1.390625 L 3.390625 -1.390625 C 4.210938 -1.390625 4.820312 -1.609375 5.21875 -2.046875 C 5.625 -2.484375 5.828125 -3.132812 5.828125 -4 Z M 5.828125 -4 "/></g></g></g><g fill="#000000" fill-opacity="1"><g transform="translate(46.188384, 32.078905)"><g><path d="M 5.5625 0 L 1 0 L 1 -7.921875 L 5.5625 -7.921875 L 5.5625 -6.546875 L 2.671875 -6.546875 L 2.671875 -4.8125 L 5.359375 -4.8125 L 5.359375 -3.421875 L 2.671875 -3.421875 L 2.671875 -1.390625 L 5.5625 -1.390625 Z M 5.5625 0 "/></g></g></g><g fill="#000000" fill-opacity="1"><g transform="translate(51.836916, 32.078905)"><g><path d="M 4.34375 0 L 2.4375 -6.21875 L 2.390625 -6.21875 C 2.398438 -6.0625 2.410156 -5.832031 2.421875 -5.53125 C 2.441406 -5.238281 2.457031 -4.925781 2.46875 -4.59375 C 2.488281 -4.257812 2.5 -3.957031 2.5 -3.6875 L 2.5 0 L 1 0 L 1 -7.921875 L 3.28125 -7.921875 L 5.15625 -1.859375 L 5.1875 -1.859375 L 7.171875 -7.921875 L 9.46875 -7.921875 L 9.46875 0 L 7.890625 0 L 7.890625 -3.75 C 7.890625 -4 7.894531 -4.285156 7.90625 -4.609375 C 7.914062 -4.929688 7.925781 -5.238281 7.9375 -5.53125 C 7.957031 -5.832031 7.972656 -6.054688 7.984375 -6.203125 L 7.9375 -6.203125 L 5.890625 0 Z M 4.34375 0 "/></g></g></g><g fill="#000000" fill-opacity="1"><g transform="translate(61.733149, 32.078905)"><g><path d="M 5.5625 0 L 1 0 L 1 -7.921875 L 5.5625 -7.921875 L 5.5625 -6.546875 L 2.671875 -6.546875 L 2.671875 -4.8125 L 5.359375 -4.8125 L 5.359375 -3.421875 L 2.671875 -3.421875 L 2.671875 -1.390625 L 5.5625 -1.390625 Z M 5.5625 0 "/></g></g></g><g fill="#000000" fill-opacity="1"><g transform="translate(67.381682, 32.078905)"><g><path d="M 10.71875 -7.921875 L 8.703125 0 L 6.796875 0 L 5.71875 -4.15625 C 5.695312 -4.238281 5.664062 -4.359375 5.625 -4.515625 C 5.59375 -4.679688 5.554688 -4.859375 5.515625 -5.046875 C 5.484375 -5.242188 5.453125 -5.425781 5.421875 -5.59375 C 5.390625 -5.769531 5.367188 -5.910156 5.359375 -6.015625 C 5.347656 -5.910156 5.328125 -5.773438 5.296875 -5.609375 C 5.265625 -5.441406 5.226562 -5.257812 5.1875 -5.0625 C 5.15625 -4.875 5.117188 -4.695312 5.078125 -4.53125 C 5.046875 -4.363281 5.019531 -4.238281 5 -4.15625 L 3.921875 0 L 2.015625 0 L 0 -7.921875 L 1.65625 -7.921875 L 2.671875 -3.59375 C 2.691406 -3.46875 2.722656 -3.3125 2.765625 -3.125 C 2.804688 -2.945312 2.84375 -2.757812 2.875 -2.5625 C 2.914062 -2.363281 2.953125 -2.171875 2.984375 -1.984375 C 3.015625 -1.804688 3.035156 -1.648438 3.046875 -1.515625 C 3.066406 -1.660156 3.085938 -1.820312 3.109375 -2 C 3.140625 -2.1875 3.171875 -2.375 3.203125 -2.5625 C 3.242188 -2.75 3.28125 -2.921875 3.3125 -3.078125 C 3.351562 -3.242188 3.390625 -3.378906 3.421875 -3.484375 L 4.578125 -7.921875 L 6.15625 -7.921875 L 7.3125 -3.484375 C 7.332031 -3.390625 7.359375 -3.257812 7.390625 -3.09375 C 7.429688 -2.925781 7.46875 -2.742188 7.5 -2.546875 C 7.539062 -2.359375 7.578125 -2.171875 7.609375 -1.984375 C 7.640625 -1.804688 7.660156 -1.648438 7.671875 -1.515625 C 7.703125 -1.703125 7.738281 -1.921875 7.78125 -2.171875 C 7.820312 -2.429688 7.867188 -2.691406 7.921875 -2.953125 C 7.972656 -3.210938 8.019531 -3.425781 8.0625 -3.59375 L 9.078125 -7.921875 Z M 10.71875 -7.921875 "/></g></g></g><g fill="#000000" fill-opacity="1"><g transform="translate(77.543396, 32.078905)"><g><path d="M 5.5625 0 L 1 0 L 1 -7.921875 L 5.5625 -7.921875 L 5.5625 -6.546875 L 2.671875 -6.546875 L 2.671875 -4.8125 L 5.359375 -4.8125 L 5.359375 -3.421875 L 2.671875 -3.421875 L 2.671875 -1.390625 L 5.5625 -1.390625 Z M 5.5625 0 "/></g></g></g><g fill="#000000" fill-opacity="1"><g transform="translate(83.191929, 32.078905)"><g><path d="M 1 -7.921875 L 3.46875 -7.921875 C 4.519531 -7.921875 5.316406 -7.769531 5.859375 -7.46875 C 6.398438 -7.175781 6.671875 -6.660156 6.671875 -5.921875 C 6.671875 -5.617188 6.617188 -5.34375 6.515625 -5.09375 C 6.421875 -4.851562 6.285156 -4.65625 6.109375 -4.5 C 5.929688 -4.351562 5.710938 -4.253906 5.453125 -4.203125 L 5.453125 -4.15625 C 5.710938 -4.09375 5.945312 -3.992188 6.15625 -3.859375 C 6.375 -3.734375 6.546875 -3.546875 6.671875 -3.296875 C 6.804688 -3.046875 6.875 -2.710938 6.875 -2.296875 C 6.875 -1.816406 6.753906 -1.40625 6.515625 -1.0625 C 6.285156 -0.71875 5.953125 -0.453125 5.515625 -0.265625 C 5.078125 -0.0859375 4.554688 0 3.953125 0 L 1 0 Z M 2.671875 -4.78125 L 3.65625 -4.78125 C 4.132812 -4.78125 4.46875 -4.859375 4.65625 -5.015625 C 4.851562 -5.171875 4.953125 -5.394531 4.953125 -5.6875 C 4.953125 -5.988281 4.835938 -6.207031 4.609375 -6.34375 C 4.390625 -6.476562 4.039062 -6.546875 3.5625 -6.546875 L 2.671875 -6.546875 Z M 2.671875 -3.453125 L 2.671875 -1.390625 L 3.765625 -1.390625 C 4.273438 -1.390625 4.628906 -1.484375 4.828125 -1.671875 C 5.023438 -1.867188 5.125 -2.132812 5.125 -2.46875 C 5.125 -2.65625 5.078125 -2.820312 4.984375 -2.96875 C 4.898438 -3.125 4.753906 -3.242188 4.546875 -3.328125 C 4.347656 -3.410156 4.070312 -3.453125 3.71875 -3.453125 Z M 2.671875 -3.453125 "/></g></g></g><g fill="#000000" fill-opacity="1"><g transform="translate(90.08118, 32.078905)"><g><path d="M 5.671875 -2.203125 C 5.671875 -1.734375 5.554688 -1.320312 5.328125 -0.96875 C 5.097656 -0.625 4.765625 -0.359375 4.328125 -0.171875 C 3.898438 0.015625 3.375 0.109375 2.75 0.109375 C 2.476562 0.109375 2.207031 0.0859375 1.9375 0.046875 C 1.675781 0.015625 1.425781 -0.0351562 1.1875 -0.109375 C 0.945312 -0.179688 0.722656 -0.269531 0.515625 -0.375 L 0.515625 -1.921875 C 0.890625 -1.753906 1.273438 -1.601562 1.671875 -1.46875 C 2.078125 -1.34375 2.476562 -1.28125 2.875 -1.28125 C 3.15625 -1.28125 3.378906 -1.316406 3.546875 -1.390625 C 3.710938 -1.460938 3.832031 -1.5625 3.90625 -1.6875 C 3.988281 -1.8125 4.03125 -1.957031 4.03125 -2.125 C 4.03125 -2.320312 3.960938 -2.488281 3.828125 -2.625 C 3.691406 -2.769531 3.503906 -2.898438 3.265625 -3.015625 C 3.035156 -3.140625 2.773438 -3.273438 2.484375 -3.421875 C 2.296875 -3.503906 2.09375 -3.609375 1.875 -3.734375 C 1.664062 -3.859375 1.460938 -4.007812 1.265625 -4.1875 C 1.066406 -4.375 0.90625 -4.59375 0.78125 -4.84375 C 0.65625 -5.101562 0.59375 -5.414062 0.59375 -5.78125 C 0.59375 -6.25 0.703125 -6.648438 0.921875 -6.984375 C 1.140625 -7.328125 1.445312 -7.585938 1.84375 -7.765625 C 2.25 -7.941406 2.726562 -8.03125 3.28125 -8.03125 C 3.695312 -8.03125 4.085938 -7.984375 4.453125 -7.890625 C 4.828125 -7.796875 5.222656 -7.65625 5.640625 -7.46875 L 5.09375 -6.171875 C 4.726562 -6.316406 4.398438 -6.429688 4.109375 -6.515625 C 3.816406 -6.597656 3.523438 -6.640625 3.234375 -6.640625 C 3.023438 -6.640625 2.84375 -6.601562 2.6875 -6.53125 C 2.539062 -6.46875 2.429688 -6.375 2.359375 -6.25 C 2.285156 -6.132812 2.25 -5.992188 2.25 -5.828125 C 2.25 -5.640625 2.300781 -5.484375 2.40625 -5.359375 C 2.519531 -5.234375 2.6875 -5.109375 2.90625 -4.984375 C 3.125 -4.867188 3.398438 -4.734375 3.734375 -4.578125 C 4.140625 -4.378906 4.484375 -4.175781 4.765625 -3.96875 C 5.054688 -3.757812 5.28125 -3.515625 5.4375 -3.234375 C 5.59375 -2.960938 5.671875 -2.617188 5.671875 -2.203125 Z M 5.671875 -2.203125 "/></g></g></g><g fill="#000000" fill-opacity="1"><g transform="translate(95.626771, 32.078905)"><g><path d="M 8.1875 -3.96875 C 8.1875 -3.363281 8.109375 -2.804688 7.953125 -2.296875 C 7.804688 -1.796875 7.578125 -1.363281 7.265625 -1 C 6.953125 -0.644531 6.5625 -0.367188 6.09375 -0.171875 C 5.625 0.015625 5.066406 0.109375 4.421875 0.109375 C 3.765625 0.109375 3.203125 0.015625 2.734375 -0.171875 C 2.265625 -0.367188 1.875 -0.644531 1.5625 -1 C 1.25 -1.363281 1.015625 -1.796875 0.859375 -2.296875 C 0.710938 -2.804688 0.640625 -3.367188 0.640625 -3.984375 C 0.640625 -4.804688 0.773438 -5.519531 1.046875 -6.125 C 1.316406 -6.726562 1.726562 -7.195312 2.28125 -7.53125 C 2.84375 -7.875 3.554688 -8.046875 4.421875 -8.046875 C 5.285156 -8.046875 5.992188 -7.875 6.546875 -7.53125 C 7.097656 -7.195312 7.507812 -6.722656 7.78125 -6.109375 C 8.050781 -5.503906 8.1875 -4.789062 8.1875 -3.96875 Z M 2.40625 -3.96875 C 2.40625 -3.414062 2.472656 -2.9375 2.609375 -2.53125 C 2.753906 -2.132812 2.972656 -1.828125 3.265625 -1.609375 C 3.554688 -1.398438 3.941406 -1.296875 4.421875 -1.296875 C 4.890625 -1.296875 5.269531 -1.398438 5.5625 -1.609375 C 5.863281 -1.828125 6.082031 -2.132812 6.21875 -2.53125 C 6.351562 -2.9375 6.421875 -3.414062 6.421875 -3.96875 C 6.421875 -4.800781 6.265625 -5.453125 5.953125 -5.921875 C 5.648438 -6.398438 5.140625 -6.640625 4.421875 -6.640625 C 3.953125 -6.640625 3.566406 -6.53125 3.265625 -6.3125 C 2.972656 -6.101562 2.753906 -5.800781 2.609375 -5.40625 C 2.472656 -5.007812 2.40625 -4.53125 2.40625 -3.96875 Z M 2.40625 -3.96875 "/></g></g></g><g fill="#000000" fill-opacity="1"><g transform="translate(103.89219, 32.078905)"><g><path d="M 1 0 L 1 -7.921875 L 2.671875 -7.921875 L 2.671875 -1.390625 L 5.890625 -1.390625 L 5.890625 0 Z M 1 0 "/></g></g></g><g fill="#000000" fill-opacity="1"><g transform="translate(109.594903, 32.078905)"><g><path d="M 7.4375 -7.921875 L 7.4375 -2.796875 C 7.4375 -2.253906 7.316406 -1.757812 7.078125 -1.3125 C 6.835938 -0.875 6.472656 -0.523438 5.984375 -0.265625 C 5.503906 -0.015625 4.894531 0.109375 4.15625 0.109375 C 3.113281 0.109375 2.316406 -0.15625 1.765625 -0.6875 C 1.210938 -1.226562 0.9375 -1.9375 0.9375 -2.8125 L 0.9375 -7.921875 L 2.609375 -7.921875 L 2.609375 -3.078125 C 2.609375 -2.421875 2.742188 -1.957031 3.015625 -1.6875 C 3.285156 -1.425781 3.679688 -1.296875 4.203125 -1.296875 C 4.566406 -1.296875 4.863281 -1.359375 5.09375 -1.484375 C 5.320312 -1.609375 5.488281 -1.800781 5.59375 -2.0625 C 5.707031 -2.332031 5.765625 -2.671875 5.765625 -3.078125 L 5.765625 -7.921875 Z M 7.4375 -7.921875 "/></g></g></g><g fill="#000000" fill-opacity="1"><g transform="translate(117.416047, 32.078905)"><g><path d="M 4.046875 0 L 2.375 0 L 2.375 -6.515625 L 0.21875 -6.515625 L 0.21875 -7.921875 L 6.203125 -7.921875 L 6.203125 -6.515625 L 4.046875 -6.515625 Z M 4.046875 0 "/></g></g></g><g fill="#000000" fill-opacity="1"><g transform="translate(123.275881, 32.078905)"><g><path d="M 1 0 L 1 -7.921875 L 2.671875 -7.921875 L 2.671875 0 Z M 1 0 "/></g></g></g><g fill="#000000" fill-opacity="1"><g transform="translate(126.383378, 32.078905)"><g><path d="M 8.1875 -3.96875 C 8.1875 -3.363281 8.109375 -2.804688 7.953125 -2.296875 C 7.804688 -1.796875 7.578125 -1.363281 7.265625 -1 C 6.953125 -0.644531 6.5625 -0.367188 6.09375 -0.171875 C 5.625 0.015625 5.066406 0.109375 4.421875 0.109375 C 3.765625 0.109375 3.203125 0.015625 2.734375 -0.171875 C 2.265625 -0.367188 1.875 -0.644531 1.5625 -1 C 1.25 -1.363281 1.015625 -1.796875 0.859375 -2.296875 C 0.710938 -2.804688 0.640625 -3.367188 0.640625 -3.984375 C 0.640625 -4.804688 0.773438 -5.519531 1.046875 -6.125 C 1.316406 -6.726562 1.726562 -7.195312 2.28125 -7.53125 C 2.84375 -7.875 3.554688 -8.046875 4.421875 -8.046875 C 5.285156 -8.046875 5.992188 -7.875 6.546875 -7.53125 C 7.097656 -7.195312 7.507812 -6.722656 7.78125 -6.109375 C 8.050781 -5.503906 8.1875 -4.789062 8.1875 -3.96875 Z M 2.40625 -3.96875 C 2.40625 -3.414062 2.472656 -2.9375 2.609375 -2.53125 C 2.753906 -2.132812 2.972656 -1.828125 3.265625 -1.609375 C 3.554688 -1.398438 3.941406 -1.296875 4.421875 -1.296875 C 4.890625 -1.296875 5.269531 -1.398438 5.5625 -1.609375 C 5.863281 -1.828125 6.082031 -2.132812 6.21875 -2.53125 C 6.351562 -2.9375 6.421875 -3.414062 6.421875 -3.96875 C 6.421875 -4.800781 6.265625 -5.453125 5.953125 -5.921875 C 5.648438 -6.398438 5.140625 -6.640625 4.421875 -6.640625 C 3.953125 -6.640625 3.566406 -6.53125 3.265625 -6.3125 C 2.972656 -6.101562 2.753906 -5.800781 2.609375 -5.40625 C 2.472656 -5.007812 2.40625 -4.53125 2.40625 -3.96875 Z M 2.40625 -3.96875 "/></g></g></g><g fill="#000000" fill-opacity="1"><g transform="translate(134.648798, 32.078905)"><g><path d="M 8.015625 0 L 5.890625 0 L 2.4375 -5.984375 L 2.390625 -5.984375 C 2.410156 -5.742188 2.425781 -5.492188 2.4375 -5.234375 C 2.445312 -4.984375 2.457031 -4.734375 2.46875 -4.484375 C 2.476562 -4.234375 2.488281 -3.984375 2.5 -3.734375 L 2.5 0 L 1 0 L 1 -7.921875 L 3.109375 -7.921875 L 6.546875 -1.984375 L 6.59375 -1.984375 C 6.582031 -2.234375 6.570312 -2.476562 6.5625 -2.71875 C 6.550781 -2.957031 6.539062 -3.195312 6.53125 -3.4375 C 6.519531 -3.6875 6.515625 -3.929688 6.515625 -4.171875 L 6.515625 -7.921875 L 8.015625 -7.921875 Z M 8.015625 0 "/></g></g></g><g fill="#000000" fill-opacity="1"><g transform="translate(143.103847, 32.078905)"><g><path d="M 5.671875 -2.203125 C 5.671875 -1.734375 5.554688 -1.320312 5.328125 -0.96875 C 5.097656 -0.625 4.765625 -0.359375 4.328125 -0.171875 C 3.898438 0.015625 3.375 0.109375 2.75 0.109375 C 2.476562 0.109375 2.207031 0.0859375 1.9375 0.046875 C 1.675781 0.015625 1.425781 -0.0351562 1.1875 -0.109375 C 0.945312 -0.179688 0.722656 -0.269531 0.515625 -0.375 L 0.515625 -1.921875 C 0.890625 -1.753906 1.273438 -1.601562 1.671875 -1.46875 C 2.078125 -1.34375 2.476562 -1.28125 2.875 -1.28125 C 3.15625 -1.28125 3.378906 -1.316406 3.546875 -1.390625 C 3.710938 -1.460938 3.832031 -1.5625 3.90625 -1.6875 C 3.988281 -1.8125 4.03125 -1.957031 4.03125 -2.125 C 4.03125 -2.320312 3.960938 -2.488281 3.828125 -2.625 C 3.691406 -2.769531 3.503906 -2.898438 3.265625 -3.015625 C 3.035156 -3.140625 2.773438 -3.273438 2.484375 -3.421875 C 2.296875 -3.503906 2.09375 -3.609375 1.875 -3.734375 C 1.664062 -3.859375 1.460938 -4.007812 1.265625 -4.1875 C 1.066406 -4.375 0.90625 -4.59375 0.78125 -4.84375 C 0.65625 -5.101562 0.59375 -5.414062 0.59375 -5.78125 C 0.59375 -6.25 0.703125 -6.648438 0.921875 -6.984375 C 1.140625 -7.328125 1.445312 -7.585938 1.84375 -7.765625 C 2.25 -7.941406 2.726562 -8.03125 3.28125 -8.03125 C 3.695312 -8.03125 4.085938 -7.984375 4.453125 -7.890625 C 4.828125 -7.796875 5.222656 -7.65625 5.640625 -7.46875 L 5.09375 -6.171875 C 4.726562 -6.316406 4.398438 -6.429688 4.109375 -6.515625 C 3.816406 -6.597656 3.523438 -6.640625 3.234375 -6.640625 C 3.023438 -6.640625 2.84375 -6.601562 2.6875 -6.53125 C 2.539062 -6.46875 2.429688 -6.375 2.359375 -6.25 C 2.285156 -6.132812 2.25 -5.992188 2.25 -5.828125 C 2.25 -5.640625 2.300781 -5.484375 2.40625 -5.359375 C 2.519531 -5.234375 2.6875 -5.109375 2.90625 -4.984375 C 3.125 -4.867188 3.398438 -4.734375 3.734375 -4.578125 C 4.140625 -4.378906 4.484375 -4.175781 4.765625 -3.96875 C 5.054688 -3.757812 5.28125 -3.515625 5.4375 -3.234375 C 5.59375 -2.960938 5.671875 -2.617188 5.671875 -2.203125 Z M 5.671875 -2.203125 "/></g></g></g><g fill="#000000" fill-opacity="1"><g transform="translate(148.649438, 32.078905)"><g><path d="M 0.640625 -0.78125 C 0.640625 -1.113281 0.726562 -1.347656 0.90625 -1.484375 C 1.09375 -1.628906 1.320312 -1.703125 1.59375 -1.703125 C 1.84375 -1.703125 2.0625 -1.628906 2.25 -1.484375 C 2.4375 -1.347656 2.53125 -1.113281 2.53125 -0.78125 C 2.53125 -0.445312 2.4375 -0.207031 2.25 -0.0625 C 2.0625 0.0703125 1.84375 0.140625 1.59375 0.140625 C 1.320312 0.140625 1.09375 0.0703125 0.90625 -0.0625 C 0.726562 -0.207031 0.640625 -0.445312 0.640625 -0.78125 Z M 0.640625 -0.78125 "/></g></g></g><g fill="#000000" fill-opacity="1"><g transform="translate(151.247644, 32.078905)"><g><path d="M 4.359375 -6.640625 C 4.035156 -6.640625 3.75 -6.578125 3.5 -6.453125 C 3.257812 -6.328125 3.050781 -6.144531 2.875 -5.90625 C 2.707031 -5.675781 2.582031 -5.394531 2.5 -5.0625 C 2.414062 -4.726562 2.375 -4.351562 2.375 -3.9375 C 2.375 -3.375 2.441406 -2.894531 2.578125 -2.5 C 2.722656 -2.101562 2.941406 -1.800781 3.234375 -1.59375 C 3.523438 -1.394531 3.898438 -1.296875 4.359375 -1.296875 C 4.679688 -1.296875 5.003906 -1.328125 5.328125 -1.390625 C 5.648438 -1.460938 6 -1.566406 6.375 -1.703125 L 6.375 -0.296875 C 6.03125 -0.148438 5.6875 -0.046875 5.34375 0.015625 C 5.007812 0.078125 4.628906 0.109375 4.203125 0.109375 C 3.390625 0.109375 2.71875 -0.0546875 2.1875 -0.390625 C 1.664062 -0.734375 1.273438 -1.207031 1.015625 -1.8125 C 0.765625 -2.425781 0.640625 -3.140625 0.640625 -3.953125 C 0.640625 -4.546875 0.71875 -5.09375 0.875 -5.59375 C 1.039062 -6.09375 1.28125 -6.523438 1.59375 -6.890625 C 1.914062 -7.253906 2.304688 -7.535156 2.765625 -7.734375 C 3.234375 -7.929688 3.765625 -8.03125 4.359375 -8.03125 C 4.753906 -8.03125 5.148438 -7.976562 5.546875 -7.875 C 5.941406 -7.78125 6.316406 -7.644531 6.671875 -7.46875 L 6.140625 -6.109375 C 5.835938 -6.253906 5.535156 -6.378906 5.234375 -6.484375 C 4.941406 -6.585938 4.648438 -6.640625 4.359375 -6.640625 Z M 4.359375 -6.640625 "/></g></g></g><g fill="#000000" fill-opacity="1"><g transform="translate(157.752218, 32.078905)"><g><path d="M 8.1875 -3.96875 C 8.1875 -3.363281 8.109375 -2.804688 7.953125 -2.296875 C 7.804688 -1.796875 7.578125 -1.363281 7.265625 -1 C 6.953125 -0.644531 6.5625 -0.367188 6.09375 -0.171875 C 5.625 0.015625 5.066406 0.109375 4.421875 0.109375 C 3.765625 0.109375 3.203125 0.015625 2.734375 -0.171875 C 2.265625 -0.367188 1.875 -0.644531 1.5625 -1 C 1.25 -1.363281 1.015625 -1.796875 0.859375 -2.296875 C 0.710938 -2.804688 0.640625 -3.367188 0.640625 -3.984375 C 0.640625 -4.804688 0.773438 -5.519531 1.046875 -6.125 C 1.316406 -6.726562 1.726562 -7.195312 2.28125 -7.53125 C 2.84375 -7.875 3.554688 -8.046875 4.421875 -8.046875 C 5.285156 -8.046875 5.992188 -7.875 6.546875 -7.53125 C 7.097656 -7.195312 7.507812 -6.722656 7.78125 -6.109375 C 8.050781 -5.503906 8.1875 -4.789062 8.1875 -3.96875 Z M 2.40625 -3.96875 C 2.40625 -3.414062 2.472656 -2.9375 2.609375 -2.53125 C 2.753906 -2.132812 2.972656 -1.828125 3.265625 -1.609375 C 3.554688 -1.398438 3.941406 -1.296875 4.421875 -1.296875 C 4.890625 -1.296875 5.269531 -1.398438 5.5625 -1.609375 C 5.863281 -1.828125 6.082031 -2.132812 6.21875 -2.53125 C 6.351562 -2.9375 6.421875 -3.414062 6.421875 -3.96875 C 6.421875 -4.800781 6.265625 -5.453125 5.953125 -5.921875 C 5.648438 -6.398438 5.140625 -6.640625 4.421875 -6.640625 C 3.953125 -6.640625 3.566406 -6.53125 3.265625 -6.3125 C 2.972656 -6.101562 2.753906 -5.800781 2.609375 -5.40625 C 2.472656 -5.007812 2.40625 -4.53125 2.40625 -3.96875 Z M 2.40625 -3.96875 "/></g></g></g><g fill="#000000" fill-opacity="1"><g transform="translate(166.017638, 32.078905)"><g><path d="M 4.34375 0 L 2.4375 -6.21875 L 2.390625 -6.21875 C 2.398438 -6.0625 2.410156 -5.832031 2.421875 -5.53125 C 2.441406 -5.238281 2.457031 -4.925781 2.46875 -4.59375 C 2.488281 -4.257812 2.5 -3.957031 2.5 -3.6875 L 2.5 0 L 1 0 L 1 -7.921875 L 3.28125 -7.921875 L 5.15625 -1.859375 L 5.1875 -1.859375 L 7.171875 -7.921875 L 9.46875 -7.921875 L 9.46875 0 L 7.890625 0 L 7.890625 -3.75 C 7.890625 -4 7.894531 -4.285156 7.90625 -4.609375 C 7.914062 -4.929688 7.925781 -5.238281 7.9375 -5.53125 C 7.957031 -5.832031 7.972656 -6.054688 7.984375 -6.203125 L 7.9375 -6.203125 L 5.890625 0 Z M 4.34375 0 "/></g></g></g></g></g></g></g></g></g></mask><clipPath id="33ad19263a"><path d="M 0.785156 0.640625 L 197.738281 0.640625 L 197.738281 56.121094 L 0.785156 56.121094 Z M 0.785156 0.640625 " clip-rule="nonzero"/></clipPath><clipPath id="9d88f16f23"><rect x="0" width="203" y="0" height="57"/></clipPath><clipPath id="727a94e251"><rect x="0" width="203" y="0" height="57"/></clipPath><clipPath id="2f0411ef25"><rect x="0" width="203" y="0" height="57"/></clipPath><clipPath id="3b750a37c9"><path d="M 1.957031 2.003906 L 387.050781 2.003906 L 387.050781 217.054688 L 1.957031 217.054688 Z M 1.957031 2.003906 " clip-rule="nonzero"/></clipPath><clipPath id="bfdafefffb"><path d="M 0.957031 0.00390625 L 386.050781 0.00390625 L 386.050781 215.054688 L 0.957031 215.054688 Z M 0.957031 0.00390625 " clip-rule="nonzero"/></clipPath><clipPath id="a126c99ef3"><path d="M 0.960938 1.671875 L 367.707031 1.671875 L 367.707031 215.054688 L 0.960938 215.054688 Z M 0.960938 1.671875 " clip-rule="nonzero"/></clipPath><linearGradient x1="61.297001" gradientTransform="matrix(1.671282, 0, 0, 1.669046, 81.890841, 80.823979)" y1="-47.423992" x2="61.297001" gradientUnits="userSpaceOnUse" y2="80.423985" id="b57f0d2487"><stop stop-opacity="1" stop-color="rgb(53.329468%, 53.329468%, 53.329468%)" offset="0"/><stop stop-opacity="1" stop-color="rgb(53.329468%, 53.329468%, 53.329468%)" offset="0.25"/><stop stop-opacity="1" stop-color="rgb(53.329468%, 53.329468%, 53.329468%)" offset="0.375"/><stop stop-opacity="1" stop-color="rgb(52.883911%, 52.883911%, 52.883911%)" offset="0.378906"/><stop stop-opacity="1" stop-color="rgb(52.438354%, 52.438354%, 52.438354%)" offset="0.382813"/><stop stop-opacity="1" stop-color="rgb(51.579285%, 51.579285%, 51.579285%)" offset="0.386719"/><stop stop-opacity="1" stop-color="rgb(50.720215%, 50.720215%, 50.720215%)" offset="0.390625"/><stop stop-opacity="1" stop-color="rgb(49.861145%, 49.861145%, 49.861145%)" offset="0.394531"/><stop stop-opacity="1" stop-color="rgb(49.002075%, 49.002075%, 49.002075%)" offset="0.398438"/><stop stop-opacity="1" stop-color="rgb(48.143005%, 48.143005%, 48.143005%)" offset="0.402344"/><stop stop-opacity="1" stop-color="rgb(47.283936%, 47.283936%, 47.283936%)" offset="0.40625"/><stop stop-opacity="1" stop-color="rgb(46.424866%, 46.424866%, 46.424866%)" offset="0.410156"/><stop stop-opacity="1" stop-color="rgb(45.565796%, 45.565796%, 45.565796%)" offset="0.414063"/><stop stop-opacity="1" stop-color="rgb(44.706726%, 44.706726%, 44.706726%)" offset="0.417969"/><stop stop-opacity="1" stop-color="rgb(43.847656%, 43.847656%, 43.847656%)" offset="0.421875"/><stop stop-opacity="1" stop-color="rgb(42.988586%, 42.988586%, 42.988586%)" offset="0.425781"/><stop stop-opacity="1" stop-color="rgb(42.129517%, 42.129517%, 42.129517%)" offset="0.429688"/><stop stop-opacity="1" stop-color="rgb(41.268921%, 41.268921%, 41.268921%)" offset="0.433594"/><stop stop-opacity="1" stop-color="rgb(40.409851%, 40.409851%, 40.409851%)" offset="0.4375"/><stop stop-opacity="1" stop-color="rgb(39.550781%, 39.550781%, 39.550781%)" offset="0.441406"/><stop stop-opacity="1" stop-color="rgb(38.691711%, 38.691711%, 38.691711%)" offset="0.445313"/><stop stop-opacity="1" stop-color="rgb(37.832642%, 37.832642%, 37.832642%)" offset="0.449219"/><stop stop-opacity="1" stop-color="rgb(36.973572%, 36.973572%, 36.973572%)" offset="0.453125"/><stop stop-opacity="1" stop-color="rgb(36.114502%, 36.114502%, 36.114502%)" offset="0.457031"/><stop stop-opacity="1" stop-color="rgb(35.255432%, 35.255432%, 35.255432%)" offset="0.460938"/><stop stop-opacity="1" stop-color="rgb(34.396362%, 34.396362%, 34.396362%)" offset="0.464844"/><stop stop-opacity="1" stop-color="rgb(33.537292%, 33.537292%, 33.537292%)" offset="0.46875"/><stop stop-opacity="1" stop-color="rgb(32.678223%, 32.678223%, 32.678223%)" offset="0.472656"/><stop stop-opacity="1" stop-color="rgb(31.819153%, 31.819153%, 31.819153%)" offset="0.476563"/><stop stop-opacity="1" stop-color="rgb(30.960083%, 30.960083%, 30.960083%)" offset="0.480469"/><stop stop-opacity="1" stop-color="rgb(30.101013%, 30.101013%, 30.101013%)" offset="0.484375"/><stop stop-opacity="1" stop-color="rgb(29.241943%, 29.241943%, 29.241943%)" offset="0.488281"/><stop stop-opacity="1" stop-color="rgb(28.382874%, 28.382874%, 28.382874%)" offset="0.492188"/><stop stop-opacity="1" stop-color="rgb(27.523804%, 27.523804%, 27.523804%)" offset="0.496094"/><stop stop-opacity="1" stop-color="rgb(26.664734%, 26.664734%, 26.664734%)" offset="0.5"/><stop stop-opacity="1" stop-color="rgb(25.805664%, 25.805664%, 25.805664%)" offset="0.503906"/><stop stop-opacity="1" stop-color="rgb(24.946594%, 24.946594%, 24.946594%)" offset="0.507813"/><stop stop-opacity="1" stop-color="rgb(24.085999%, 24.085999%, 24.085999%)" offset="0.511719"/><stop stop-opacity="1" stop-color="rgb(23.226929%, 23.226929%, 23.226929%)" offset="0.515625"/><stop stop-opacity="1" stop-color="rgb(22.367859%, 22.367859%, 22.367859%)" offset="0.519531"/><stop stop-opacity="1" stop-color="rgb(21.508789%, 21.508789%, 21.508789%)" offset="0.523438"/><stop stop-opacity="1" stop-color="rgb(20.649719%, 20.649719%, 20.649719%)" offset="0.527344"/><stop stop-opacity="1" stop-color="rgb(19.790649%, 19.790649%, 19.790649%)" offset="0.53125"/><stop stop-opacity="1" stop-color="rgb(18.93158%, 18.93158%, 18.93158%)" offset="0.535156"/><stop stop-opacity="1" stop-color="rgb(18.07251%, 18.07251%, 18.07251%)" offset="0.539063"/><stop stop-opacity="1" stop-color="rgb(17.21344%, 17.21344%, 17.21344%)" offset="0.542969"/><stop stop-opacity="1" stop-color="rgb(16.35437%, 16.35437%, 16.35437%)" offset="0.546875"/><stop stop-opacity="1" stop-color="rgb(15.4953%, 15.4953%, 15.4953%)" offset="0.550781"/><stop stop-opacity="1" stop-color="rgb(14.63623%, 14.63623%, 14.63623%)" offset="0.554688"/><stop stop-opacity="1" stop-color="rgb(13.777161%, 13.777161%, 13.777161%)" offset="0.558594"/><stop stop-opacity="1" stop-color="rgb(12.918091%, 12.918091%, 12.918091%)" offset="0.5625"/><stop stop-opacity="1" stop-color="rgb(12.059021%, 12.059021%, 12.059021%)" offset="0.566406"/><stop stop-opacity="1" stop-color="rgb(11.199951%, 11.199951%, 11.199951%)" offset="0.570312"/><stop stop-opacity="1" stop-color="rgb(10.340881%, 10.340881%, 10.340881%)" offset="0.574219"/><stop stop-opacity="1" stop-color="rgb(9.481812%, 9.481812%, 9.481812%)" offset="0.578125"/><stop stop-opacity="1" stop-color="rgb(8.622742%, 8.622742%, 8.622742%)" offset="0.582031"/><stop stop-opacity="1" stop-color="rgb(7.763672%, 7.763672%, 7.763672%)" offset="0.585938"/><stop stop-opacity="1" stop-color="rgb(6.904602%, 6.904602%, 6.904602%)" offset="0.589844"/><stop stop-opacity="1" stop-color="rgb(6.045532%, 6.045532%, 6.045532%)" offset="0.59375"/><stop stop-opacity="1" stop-color="rgb(5.184937%, 5.184937%, 5.184937%)" offset="0.597656"/><stop stop-opacity="1" stop-color="rgb(4.325867%, 4.325867%, 4.325867%)" offset="0.601562"/><stop stop-opacity="1" stop-color="rgb(3.466797%, 3.466797%, 3.466797%)" offset="0.605469"/><stop stop-opacity="1" stop-color="rgb(2.607727%, 2.607727%, 2.607727%)" offset="0.609375"/><stop stop-opacity="1" stop-color="rgb(1.748657%, 1.748657%, 1.748657%)" offset="0.613281"/><stop stop-opacity="1" stop-color="rgb(0.889587%, 0.889587%, 0.889587%)" offset="0.617188"/><stop stop-opacity="1" stop-color="rgb(0.444031%, 0.444031%, 0.444031%)" offset="0.621094"/><stop stop-opacity="1" stop-color="rgb(0%, 0%, 0%)" offset="0.625"/><stop stop-opacity="1" stop-color="rgb(0%, 0%, 0%)" offset="0.75"/><stop stop-opacity="1" stop-color="rgb(0%, 0%, 0%)" offset="1"/></linearGradient><clipPath id="a9c9a6d57d"><rect x="0" width="387" y="0" height="216"/></clipPath><clipPath id="ebdca42f01"><path d="M 0.957031 0.00390625 L 386.050781 0.00390625 L 386.050781 215.054688 L 0.957031 215.054688 Z M 0.957031 0.00390625 " clip-rule="nonzero"/></clipPath><clipPath id="961e59c035"><rect x="0" width="387" y="0" height="216"/></clipPath><clipPath id="02760ef191"><rect x="0" width="387" y="0" height="216"/></clipPath><mask id="c8502bb880"><g filter="url(#f5c270c444)"><g transform="matrix(1, 0, 0, 1, 0, -0.000000000000056843)"><g clip-path="url(#02760ef191)"><g clip-path="url(#ebdca42f01)"><g transform="matrix(1, 0, 0, 1, 0, -0.000000000000056843)"><g clip-path="url(#961e59c035)"><g fill="#000000" fill-opacity="1"><g transform="translate(80.976604, 118.365621)"><g><path d="M 3.234375 -28.25 L 15.140625 -28.25 C 16.753906 -28.25 18.207031 -28.015625 19.5 -27.546875 C 20.789062 -27.078125 21.890625 -26.425781 22.796875 -25.59375 C 23.710938 -24.757812 24.410156 -23.773438 24.890625 -22.640625 C 25.378906 -21.515625 25.625 -20.289062 25.625 -18.96875 C 25.625 -17.644531 25.378906 -16.414062 24.890625 -15.28125 C 24.410156 -14.15625 23.710938 -13.175781 22.796875 -12.34375 C 21.890625 -11.507812 20.789062 -10.859375 19.5 -10.390625 C 18.207031 -9.921875 16.753906 -9.6875 15.140625 -9.6875 L 6.859375 -9.6875 L 6.859375 0 L 3.234375 0 Z M 15.140625 -13.109375 C 17.367188 -13.109375 19.066406 -13.65625 20.234375 -14.75 C 21.410156 -15.84375 22 -17.25 22 -18.96875 C 22 -20.6875 21.410156 -22.09375 20.234375 -23.1875 C 19.066406 -24.28125 17.367188 -24.828125 15.140625 -24.828125 L 6.859375 -24.828125 L 6.859375 -13.109375 Z M 15.140625 -13.109375 "/></g></g></g><g fill="#000000" fill-opacity="1"><g transform="translate(106.798925, 118.365621)"><g><path d="M 2.828125 -28.25 L 6.046875 -28.25 L 6.046875 -17.15625 L 6.09375 -17.15625 C 6.5 -17.800781 7.023438 -18.363281 7.671875 -18.84375 C 8.203125 -19.28125 8.90625 -19.675781 9.78125 -20.03125 C 10.65625 -20.394531 11.703125 -20.578125 12.921875 -20.578125 C 14.128906 -20.578125 15.226562 -20.378906 16.21875 -19.984375 C 17.21875 -19.597656 18.066406 -19.03125 18.765625 -18.28125 C 19.460938 -17.53125 20.003906 -16.625 20.390625 -15.5625 C 20.785156 -14.5 20.984375 -13.28125 20.984375 -11.90625 L 20.984375 0 L 17.765625 0 L 17.765625 -11.703125 C 17.765625 -13.722656 17.257812 -15.203125 16.25 -16.140625 C 15.238281 -17.085938 13.925781 -17.5625 12.3125 -17.5625 C 11.394531 -17.5625 10.550781 -17.40625 9.78125 -17.09375 C 9.019531 -16.78125 8.363281 -16.328125 7.8125 -15.734375 C 7.257812 -15.148438 6.828125 -14.445312 6.515625 -13.625 C 6.203125 -12.800781 6.046875 -11.890625 6.046875 -10.890625 L 6.046875 0 L 2.828125 0 Z M 2.828125 -28.25 "/></g></g></g><g fill="#000000" fill-opacity="1"><g transform="translate(128.989934, 118.365621)"><g><path d="M 11.296875 0.40625 C 9.984375 0.40625 8.738281 0.144531 7.5625 -0.375 C 6.394531 -0.90625 5.363281 -1.632812 4.46875 -2.5625 C 3.582031 -3.488281 2.882812 -4.597656 2.375 -5.890625 C 1.863281 -7.179688 1.609375 -8.582031 1.609375 -10.09375 C 1.609375 -11.59375 1.863281 -12.988281 2.375 -14.28125 C 2.882812 -15.570312 3.582031 -16.679688 4.46875 -17.609375 C 5.363281 -18.546875 6.394531 -19.273438 7.5625 -19.796875 C 8.738281 -20.316406 9.984375 -20.578125 11.296875 -20.578125 C 12.617188 -20.578125 13.734375 -20.390625 14.640625 -20.015625 C 15.554688 -19.640625 16.304688 -19.222656 16.890625 -18.765625 C 17.472656 -18.304688 17.890625 -17.878906 18.140625 -17.484375 C 18.398438 -17.097656 18.53125 -16.90625 18.53125 -16.90625 L 18.5625 -16.90625 L 18.5625 -20.171875 L 21.796875 -20.171875 L 21.796875 0 L 18.5625 0 L 18.5625 -3.234375 L 18.53125 -3.234375 C 18.53125 -3.234375 18.398438 -3.035156 18.140625 -2.640625 C 17.890625 -2.253906 17.472656 -1.835938 16.890625 -1.390625 C 16.304688 -0.941406 15.554688 -0.53125 14.640625 -0.15625 C 13.734375 0.21875 12.617188 0.40625 11.296875 0.40625 Z M 11.703125 -2.625 C 12.671875 -2.625 13.570312 -2.804688 14.40625 -3.171875 C 15.238281 -3.535156 15.960938 -4.046875 16.578125 -4.703125 C 17.203125 -5.359375 17.6875 -6.144531 18.03125 -7.0625 C 18.382812 -7.976562 18.5625 -8.988281 18.5625 -10.09375 C 18.5625 -11.195312 18.382812 -12.203125 18.03125 -13.109375 C 17.6875 -14.023438 17.203125 -14.8125 16.578125 -15.46875 C 15.960938 -16.132812 15.238281 -16.648438 14.40625 -17.015625 C 13.570312 -17.378906 12.671875 -17.5625 11.703125 -17.5625 C 10.734375 -17.5625 9.832031 -17.378906 9 -17.015625 C 8.164062 -16.648438 7.4375 -16.132812 6.8125 -15.46875 C 6.195312 -14.8125 5.710938 -14.023438 5.359375 -13.109375 C 5.015625 -12.203125 4.84375 -11.195312 4.84375 -10.09375 C 4.84375 -8.988281 5.015625 -7.976562 5.359375 -7.0625 C 5.710938 -6.144531 6.195312 -5.359375 6.8125 -4.703125 C 7.4375 -4.046875 8.164062 -3.535156 9 -3.171875 C 9.832031 -2.804688 10.734375 -2.625 11.703125 -2.625 Z M 11.703125 -2.625 "/></g></g></g><g fill="#000000" fill-opacity="1"><g transform="translate(152.39138, 118.365621)"><g><path d="M 2.828125 -20.171875 L 6.046875 -20.171875 L 6.046875 -17.15625 L 6.09375 -17.15625 C 6.5 -17.800781 7.023438 -18.363281 7.671875 -18.84375 C 8.203125 -19.28125 8.90625 -19.675781 9.78125 -20.03125 C 10.65625 -20.394531 11.703125 -20.578125 12.921875 -20.578125 C 14.128906 -20.578125 15.226562 -20.378906 16.21875 -19.984375 C 17.21875 -19.597656 18.066406 -19.03125 18.765625 -18.28125 C 19.460938 -17.53125 20.003906 -16.625 20.390625 -15.5625 C 20.785156 -14.5 20.984375 -13.28125 20.984375 -11.90625 L 20.984375 0 L 17.765625 0 L 17.765625 -11.703125 C 17.765625 -13.722656 17.257812 -15.203125 16.25 -16.140625 C 15.238281 -17.085938 13.925781 -17.5625 12.3125 -17.5625 C 11.394531 -17.5625 10.550781 -17.40625 9.78125 -17.09375 C 9.019531 -16.78125 8.363281 -16.328125 7.8125 -15.734375 C 7.257812 -15.148438 6.828125 -14.445312 6.515625 -13.625 C 6.203125 -12.800781 6.046875 -11.890625 6.046875 -10.890625 L 6.046875 0 L 2.828125 0 Z M 2.828125 -20.171875 "/></g></g></g><g fill="#000000" fill-opacity="1"><g transform="translate(174.784132, 118.365621)"><g><path d="M 3.625 -17.15625 L 1.015625 -17.15625 L 1.015625 -20.171875 L 3.625 -20.171875 L 3.625 -24.625 L 6.859375 -24.625 L 6.859375 -20.171875 L 13.3125 -20.171875 L 13.3125 -17.15625 L 6.859375 -17.15625 L 6.859375 -3.03125 L 13.515625 -3.03125 L 13.515625 0 L 3.625 0 Z M 3.625 -17.15625 "/></g></g></g><g fill="#000000" fill-opacity="1"><g transform="translate(188.300308, 118.365621)"><g><path d="M 12.109375 0.40625 C 10.597656 0.40625 9.195312 0.144531 7.90625 -0.375 C 6.613281 -0.90625 5.503906 -1.632812 4.578125 -2.5625 C 3.648438 -3.488281 2.921875 -4.597656 2.390625 -5.890625 C 1.867188 -7.179688 1.609375 -8.582031 1.609375 -10.09375 C 1.609375 -11.59375 1.867188 -12.988281 2.390625 -14.28125 C 2.921875 -15.570312 3.648438 -16.679688 4.578125 -17.609375 C 5.503906 -18.546875 6.613281 -19.273438 7.90625 -19.796875 C 9.195312 -20.316406 10.597656 -20.578125 12.109375 -20.578125 C 13.617188 -20.578125 15.019531 -20.316406 16.3125 -19.796875 C 17.601562 -19.273438 18.710938 -18.546875 19.640625 -17.609375 C 20.566406 -16.679688 21.289062 -15.570312 21.8125 -14.28125 C 22.332031 -12.988281 22.59375 -11.59375 22.59375 -10.09375 C 22.59375 -8.582031 22.332031 -7.179688 21.8125 -5.890625 C 21.289062 -4.597656 20.566406 -3.488281 19.640625 -2.5625 C 18.710938 -1.632812 17.601562 -0.90625 16.3125 -0.375 C 15.019531 0.144531 13.617188 0.40625 12.109375 0.40625 Z M 12.109375 -2.625 C 13.160156 -2.625 14.128906 -2.804688 15.015625 -3.171875 C 15.898438 -3.535156 16.664062 -4.046875 17.3125 -4.703125 C 17.957031 -5.359375 18.460938 -6.144531 18.828125 -7.0625 C 19.191406 -7.976562 19.375 -8.988281 19.375 -10.09375 C 19.375 -11.195312 19.191406 -12.203125 18.828125 -13.109375 C 18.460938 -14.023438 17.957031 -14.8125 17.3125 -15.46875 C 16.664062 -16.132812 15.898438 -16.648438 15.015625 -17.015625 C 14.128906 -17.378906 13.160156 -17.5625 12.109375 -17.5625 C 11.054688 -17.5625 10.085938 -17.378906 9.203125 -17.015625 C 8.316406 -16.648438 7.550781 -16.132812 6.90625 -15.46875 C 6.257812 -14.8125 5.753906 -14.023438 5.390625 -13.109375 C 5.023438 -12.203125 4.84375 -11.195312 4.84375 -10.09375 C 4.84375 -8.988281 5.023438 -7.976562 5.390625 -7.0625 C 5.753906 -6.144531 6.257812 -5.359375 6.90625 -4.703125 C 7.550781 -4.046875 8.316406 -3.535156 9.203125 -3.171875 C 10.085938 -2.804688 11.054688 -2.625 12.109375 -2.625 Z M 12.109375 -2.625 "/></g></g></g><g fill="#000000" fill-opacity="1"><g transform="translate(211.298267, 118.365621)"><g><path d="M 2.828125 -20.171875 L 6.046875 -20.171875 L 6.046875 -17.15625 L 6.09375 -17.15625 C 6.46875 -17.800781 6.96875 -18.363281 7.59375 -18.84375 C 8.125 -19.28125 8.804688 -19.675781 9.640625 -20.03125 C 10.472656 -20.394531 11.5 -20.578125 12.71875 -20.578125 C 13.925781 -20.578125 14.9375 -20.367188 15.75 -19.953125 C 16.570312 -19.535156 17.242188 -19.070312 17.765625 -18.5625 C 18.347656 -17.96875 18.816406 -17.296875 19.171875 -16.546875 L 19.375 -16.546875 C 19.800781 -17.296875 20.363281 -17.96875 21.0625 -18.5625 C 21.65625 -19.070312 22.421875 -19.535156 23.359375 -19.953125 C 24.304688 -20.367188 25.46875 -20.578125 26.84375 -20.578125 C 27.882812 -20.578125 28.863281 -20.378906 29.78125 -19.984375 C 30.695312 -19.597656 31.488281 -19.03125 32.15625 -18.28125 C 32.832031 -17.53125 33.359375 -16.625 33.734375 -15.5625 C 34.117188 -14.5 34.3125 -13.28125 34.3125 -11.90625 L 34.3125 0 L 31.078125 0 L 31.078125 -11.703125 C 31.078125 -13.640625 30.625 -15.097656 29.71875 -16.078125 C 28.820312 -17.066406 27.660156 -17.5625 26.234375 -17.5625 C 25.421875 -17.5625 24.648438 -17.390625 23.921875 -17.046875 C 23.203125 -16.710938 22.554688 -16.265625 21.984375 -15.703125 C 21.421875 -15.140625 20.976562 -14.476562 20.65625 -13.71875 C 20.332031 -12.96875 20.171875 -12.160156 20.171875 -11.296875 L 20.171875 0 L 16.953125 0 L 16.953125 -11.703125 C 16.953125 -13.609375 16.5 -15.0625 15.59375 -16.0625 C 14.695312 -17.0625 13.535156 -17.5625 12.109375 -17.5625 C 11.296875 -17.5625 10.523438 -17.390625 9.796875 -17.046875 C 9.078125 -16.710938 8.429688 -16.265625 7.859375 -15.703125 C 7.296875 -15.140625 6.851562 -14.476562 6.53125 -13.71875 C 6.207031 -12.96875 6.046875 -12.160156 6.046875 -11.296875 L 6.046875 0 L 2.828125 0 Z M 2.828125 -20.171875 "/></g></g></g><g fill="#000000" fill-opacity="1"><g transform="translate(247.005859, 118.365621)"><g><path d="M 4.234375 0.609375 C 3.535156 0.609375 2.957031 0.378906 2.5 -0.078125 C 2.039062 -0.535156 1.8125 -1.113281 1.8125 -1.8125 C 1.8125 -2.507812 2.039062 -3.085938 2.5 -3.546875 C 2.957031 -4.003906 3.535156 -4.234375 4.234375 -4.234375 C 4.929688 -4.234375 5.507812 -4.003906 5.96875 -3.546875 C 6.425781 -3.085938 6.65625 -2.507812 6.65625 -1.8125 C 6.65625 -1.113281 6.425781 -0.535156 5.96875 -0.078125 C 5.507812 0.378906 4.929688 0.609375 4.234375 0.609375 Z M 4.234375 0.609375 "/></g></g></g><g fill="#000000" fill-opacity="1"><g transform="translate(254.268078, 118.365621)"><g><path d="M 11.296875 0.40625 C 9.984375 0.40625 8.738281 0.144531 7.5625 -0.375 C 6.394531 -0.90625 5.363281 -1.632812 4.46875 -2.5625 C 3.582031 -3.488281 2.882812 -4.597656 2.375 -5.890625 C 1.863281 -7.179688 1.609375 -8.582031 1.609375 -10.09375 C 1.609375 -11.59375 1.863281 -12.988281 2.375 -14.28125 C 2.882812 -15.570312 3.582031 -16.679688 4.46875 -17.609375 C 5.363281 -18.546875 6.394531 -19.273438 7.5625 -19.796875 C 8.738281 -20.316406 9.984375 -20.578125 11.296875 -20.578125 C 12.617188 -20.578125 13.734375 -20.390625 14.640625 -20.015625 C 15.554688 -19.640625 16.304688 -19.222656 16.890625 -18.765625 C 17.472656 -18.304688 17.890625 -17.878906 18.140625 -17.484375 C 18.398438 -17.097656 18.53125 -16.90625 18.53125 -16.90625 L 18.5625 -16.90625 L 18.5625 -20.171875 L 21.796875 -20.171875 L 21.796875 0 L 18.5625 0 L 18.5625 -3.234375 L 18.53125 -3.234375 C 18.53125 -3.234375 18.398438 -3.035156 18.140625 -2.640625 C 17.890625 -2.253906 17.472656 -1.835938 16.890625 -1.390625 C 16.304688 -0.941406 15.554688 -0.53125 14.640625 -0.15625 C 13.734375 0.21875 12.617188 0.40625 11.296875 0.40625 Z M 11.703125 -2.625 C 12.671875 -2.625 13.570312 -2.804688 14.40625 -3.171875 C 15.238281 -3.535156 15.960938 -4.046875 16.578125 -4.703125 C 17.203125 -5.359375 17.6875 -6.144531 18.03125 -7.0625 C 18.382812 -7.976562 18.5625 -8.988281 18.5625 -10.09375 C 18.5625 -11.195312 18.382812 -12.203125 18.03125 -13.109375 C 17.6875 -14.023438 17.203125 -14.8125 16.578125 -15.46875 C 15.960938 -16.132812 15.238281 -16.648438 14.40625 -17.015625 C 13.570312 -17.378906 12.671875 -17.5625 11.703125 -17.5625 C 10.734375 -17.5625 9.832031 -17.378906 9 -17.015625 C 8.164062 -16.648438 7.4375 -16.132812 6.8125 -15.46875 C 6.195312 -14.8125 5.710938 -14.023438 5.359375 -13.109375 C 5.015625 -12.203125 4.84375 -11.195312 4.84375 -10.09375 C 4.84375 -8.988281 5.015625 -7.976562 5.359375 -7.0625 C 5.710938 -6.144531 6.195312 -5.359375 6.8125 -4.703125 C 7.4375 -4.046875 8.164062 -3.535156 9 -3.171875 C 9.832031 -2.804688 10.734375 -2.625 11.703125 -2.625 Z M 11.703125 -2.625 "/></g></g></g><g fill="#000000" fill-opacity="1"><g transform="translate(277.669524, 118.365621)"><g><path d="M 2.828125 -20.171875 L 6.046875 -20.171875 L 6.046875 0 L 2.828125 0 Z M 4.4375 -24.015625 C 3.820312 -24.015625 3.296875 -24.226562 2.859375 -24.65625 C 2.429688 -25.09375 2.21875 -25.617188 2.21875 -26.234375 C 2.21875 -26.847656 2.429688 -27.367188 2.859375 -27.796875 C 3.296875 -28.234375 3.820312 -28.453125 4.4375 -28.453125 C 5.0625 -28.453125 5.585938 -28.234375 6.015625 -27.796875 C 6.441406 -27.367188 6.65625 -26.847656 6.65625 -26.234375 C 6.65625 -25.617188 6.441406 -25.09375 6.015625 -24.65625 C 5.585938 -24.226562 5.0625 -24.015625 4.4375 -24.015625 Z M 4.4375 -24.015625 "/></g></g></g></g></g></g></g></g></g></mask><clipPath id="7fb98c4aa1"><path d="M 0.960938 1.671875 L 367.707031 1.671875 L 367.707031 215.054688 L 0.960938 215.054688 Z M 0.960938 1.671875 " clip-rule="nonzero"/></clipPath><clipPath id="884a6f2c48"><rect x="0" width="387" y="0" height="216"/></clipPath><clipPath id="c7b1c8e961"><rect x="0" width="387" y="0" height="216"/></clipPath><clipPath id="c56d02dffc"><rect x="0" width="388" y="0" height="219"/></clipPath></defs><rect x="-96" width="1152" fill="#ffffff" y="-60" height="719.999999" fill-opacity="1"/><rect x="-96" width="1152" fill="#ffffff" y="-60" height="719.999999" fill-opacity="1"/><g mask="url(#9fa71cb609)"><g transform="matrix(1, 0, 0, 1, 443, 174)"><g clip-path="url(#80e3b552df)"><g clip-path="url(#ad29196b52)"><path fill="#0a0a0a" d="M 173.367188 163.4375 L 134.054688 95.355469 L 116.71875 125.414062 L 147.332031 178.449219 C 150.097656 183.246094 155.148438 185.972656 160.351562 185.972656 C 162.894531 185.972656 165.476562 185.308594 167.835938 183.945312 C 175.066406 179.777344 177.5 170.632812 173.367188 163.4375 Z M 173.367188 163.4375 " fill-opacity="1" fill-rule="nonzero"/></g><g clip-path="url(#a6d58f9169)"><path fill="#0a0a0a" d="M 145.78125 57.957031 L 129.109375 86.835938 L 111.738281 116.894531 L 84.890625 163.402344 C 76.847656 177.34375 61.839844 186.011719 45.757812 186.011719 C 29.417969 186.011719 14.777344 177.566406 6.589844 163.402344 C -1.597656 149.277344 -1.597656 132.347656 6.589844 118.183594 L 53.578125 36.859375 C 58.445312 28.414062 67.1875 23.363281 76.921875 23.363281 C 86.660156 23.363281 95.402344 28.414062 100.304688 36.859375 L 102.003906 39.8125 L 106.871094 48.21875 L 89.5 78.277344 L 76.921875 56.519531 L 32.664062 133.195312 C 28.71875 140.019531 31.335938 146.066406 32.664062 148.355469 C 33.992188 150.640625 37.902344 155.953125 45.796875 155.953125 C 51.179688 155.953125 56.234375 153.039062 58.886719 148.355469 L 94.40625 86.835938 L 111.777344 56.777344 L 119.742188 42.945312 C 123.910156 35.753906 133.09375 33.285156 140.285156 37.453125 C 147.476562 41.582031 149.949219 50.765625 145.78125 57.957031 Z M 145.78125 57.957031 " fill-opacity="1" fill-rule="nonzero"/></g><path fill="#0a0a0a" d="M 138.480469 22.257812 C 146.519531 40.363281 173.332031 29.261719 166.25 10.75 C 158.171875 -7.324219 131.359375 3.777344 138.480469 22.257812 Z M 138.480469 22.257812 " fill-opacity="1" fill-rule="nonzero"/></g></g></g><g mask="url(#825658977a)"><g transform="matrix(1, 0, 0, 1, 312, 180)"><g clip-path="url(#c02a59017e)"><g clip-path="url(#c3f0662be0)"><path fill="#0a0a0a" d="M 144.945312 65.011719 C 148.746094 42.441406 155.671875 29.925781 155.226562 23.890625 C 155.226562 23.890625 152.765625 15.398438 143.15625 11.601562 C 133.546875 7.800781 116.535156 0.00390625 84.257812 0.00390625 C 51.980469 0.00390625 18.457031 11.824219 11.304688 25.234375 C 4.15625 38.640625 -0.539062 49.144531 1.921875 70.820312 C 4.378906 92.5 8.847656 109.484375 8.625 122.222656 C 8.402344 134.960938 5.71875 158.425781 18.011719 175.410156 C 30.300781 192.394531 32.984375 216.753906 61.589844 239.996094 C 61.589844 239.996094 53.988281 221 69.410156 206.027344 C 84.832031 191.050781 110.976562 190.828125 120.140625 189.488281 C 129.300781 188.148438 136.453125 179.433594 132.429688 168.035156 C 128.410156 156.636719 117.234375 131.832031 118.796875 114.398438 C 120.363281 96.96875 141.144531 87.582031 144.945312 65.011719 Z M 79.75 123.878906 C 77.136719 124.484375 72.308594 123.175781 68.1875 122.875 C 64.066406 122.574219 40.84375 122.371094 38.933594 121.46875 C 37.023438 120.5625 33.101562 117.847656 33.402344 109.402344 C 33.703125 100.960938 43.355469 98.246094 61.050781 99.453125 C 78.742188 100.65625 85.175781 112.519531 85.175781 112.519531 C 87.1875 121.96875 82.363281 123.277344 79.75 123.878906 Z M 96.023438 181.117188 C 95.382812 181.707031 94.519531 181.890625 91.140625 181.34375 C 87.765625 180.796875 88.039062 179.152344 88.175781 178.605469 C 88.3125 178.058594 94.015625 178.789062 95.246094 179.5625 C 96.480469 180.339844 96.023438 181.117188 96.023438 181.117188 Z M 120.652344 178.605469 C 120.792969 179.15625 121.0625 180.796875 117.6875 181.34375 C 114.3125 181.890625 113.445312 181.707031 112.808594 181.117188 C 112.808594 181.117188 112.351562 180.339844 113.582031 179.566406 C 114.816406 178.789062 120.515625 178.058594 120.652344 178.605469 Z M 120.652344 178.605469 " fill-opacity="1" fill-rule="nonzero"/></g></g></g></g><g transform="matrix(1, 0, 0, 1, 403, 398)"><g clip-path="url(#2f0411ef25)"><g clip-path="url(#daebfaf921)"><g transform="matrix(1, 0, 0, 1, 0, -0.000000000000056843)"><g clip-path="url(#727a94e251)"><g clip-path="url(#ccc151c00d)"><g mask="url(#91e2b064e8)"><g transform="matrix(1, 0, 0, 1, 0, -0.000000000000056843)"><g clip-path="url(#9d88f16f23)"><g clip-path="url(#33ad19263a)"><path fill="url(#b0c15a0cf9)" d="M 0.785156 0.640625 L 0.785156 56.121094 L 197.738281 56.121094 L 197.738281 0.640625 Z M 0.785156 0.640625 " fill-rule="nonzero"/></g></g></g></g></g></g></g></g></g></g><g transform="matrix(1, 0, 0, 1, 344, 287)"><g clip-path="url(#c56d02dffc)"><g clip-path="url(#3b750a37c9)"><g transform="matrix(1, 0, 0, 1, 1, 2)"><g clip-path="url(#c7b1c8e961)"><g clip-path="url(#bfdafefffb)"><g mask="url(#c8502bb880)"><g transform="matrix(1, 0, 0, 1, 0, -0.000000000000056843)"><g clip-path="url(#884a6f2c48)"><g clip-path="url(#7fb98c4aa1)"><path fill="url(#b57f0d2487)" d="M 0.960938 1.671875 L 0.960938 215.054688 L 367.707031 215.054688 L 367.707031 1.671875 Z M 0.960938 1.671875 " fill-rule="nonzero"/></g></g></g></g></g></g></g></g></g></g></svg>